PathFileType	4	(X/Y/Z)	E:\Marcel_BSc\Marcel\30_01_2025\static_00.trc
DataRate	CameraRate	NumFrames	NumMarkers	Units	OrigDataRate	OrigDataStartFrame	OrigNumFrames
200.0	200.0	4	59	mm	200.0	40	158	
Frame#	Time	FHD			LBHD			RBHD			RBAR			LBAR			RASI			RSACR			LSACR			LASI			USACR			C7			CLAV			T10			RSHO			LSHO			LTHI1			LTHI3			LTHI2			LLFC			LMFC			LTIB1			LTIB2			LTIB3			LMMAL			LLMAL			LHEE			LMT1			LMT5			LMT3			RTHI1			RTHI2			RTHI3			RLFC			RMFC			RTIB1			RTIB3			RTIB2			RLMAL			RMMAL			RHEE			RMT5			RMT1			RMT3			LMEP			LLEP			LDUPA			LMUPA			LUUPA			LUL			LRAD			LRFIN			RUL			RRAD			RUFIN			RMEP			RLEP			RMUPA			RDUPA			RUUPA			
		X1	Y1	Z1	X2	Y2	Z2	X3	Y3	Z3	X4	Y4	Z4	X5	Y5	Z5	X6	Y6	Z6	X7	Y7	Z7	X8	Y8	Z8	X9	Y9	Z9	X10	Y10	Z10	X11	Y11	Z11	X12	Y12	Z12	X13	Y13	Z13	X14	Y14	Z14	X15	Y15	Z15	X16	Y16	Z16	X17	Y17	Z17	X18	Y18	Z18	X19	Y19	Z19	X20	Y20	Z20	X21	Y21	Z21	X22	Y22	Z22	X23	Y23	Z23	X24	Y24	Z24	X25	Y25	Z25	X26	Y26	Z26	X27	Y27	Z27	X28	Y28	Z28	X29	Y29	Z29	X30	Y30	Z30	X31	Y31	Z31	X32	Y32	Z32	X33	Y33	Z33	X34	Y34	Z34	X35	Y35	Z35	X36	Y36	Z36	X37	Y37	Z37	X38	Y38	Z38	X39	Y39	Z39	X40	Y40	Z40	X41	Y41	Z41	X42	Y42	Z42	X43	Y43	Z43	X44	Y44	Z44	X45	Y45	Z45	X46	Y46	Z46	X47	Y47	Z47	X48	Y48	Z48	X49	Y49	Z49	X50	Y50	Z50	X51	Y51	Z51	X52	Y52	Z52	X53	Y53	Z53	X54	Y54	Z54	X55	Y55	Z55	X56	Y56	Z56	X57	Y57	Z57	X58	Y58	Z58	X59	Y59	Z59	
40	0.19	103.42551	1818.0033	-579.57495	135.81068	1803.1978	-521.22333	131.88893	1801.6681	-650.46082	1237.7529	37.500301	-1766.9834	1247.9926	32.443176	457.99072	99.214958	1048.1599	-723.95349	307.90497	1098.0345	-621.11884	303.67593	1095.1512	-557.25745	93.294006	1038.4982	-458.59891	299.34958	1111.9154	-589.21082	278.24741	1566.5812	-582.82379	115.67454	1531.3372	-584.08124	280.04544	1256.8402	-577.21112	239.45096	1604.7687	-733.51636	223.23486	1594.8877	-416.53021	227.07014	706.9859	-410.3306	256.81641	651.32886	-428.92392	209.78065	643.74463	-408.25394	220.6395	524.75317	-415.43726	173.87851	506.25955	-517.28174	221.95428	276.31494	-400.32233	269.17883	274.98236	-381.18912	242.63763	214.28377	-391.99963	268.03827	92.419418	-468.18301	287.00708	83.793022	-380.6716	344.01813	39.190464	-422.32712	115.22068	41.445515	-434.44156	145.14618	26.11965	-352.03171	122.65481	36.07169	-388.9328	206.78049	674.8891	-792.72772	253.66161	671.06921	-773.67676	225.35628	613.17743	-781.44672	202.35315	529.33209	-778.16809	178.6913	508.64236	-681.89276	259.56793	277.79636	-811.39038	291.45587	219.55389	-814.00964	240.50116	214.45569	-809.82227	292.77158	75.539894	-813.62604	245.10661	71.115059	-736.35126	339.87741	30.592083	-765.05383	173.10741	26.114502	-862.68738	109.4123	42.531261	-788.39612	134.0612	40.157169	-828.96106	160.16544	1469.4318	-113.94408	233.11336	1508.5735	-115.45814	259.13483	1522.8612	-216.63971	226.57387	1560.6288	-218.99352	235.39482	1564.5972	-280.39139	169.98186	1562.7347	167.96585	140.78815	1627.6891	136.97874	167.22108	1656.861	236.35316	215.83516	1591.5765	-1341.0784	195.20049	1658.6102	-1307.585	226.05637	1681.2966	-1394.1049	177.85184	1484.3641	-1044.6815	247.33101	1539.3937	-1056.9823	246.16483	1577.1616	-909.60785	254.08995	1564.4331	-969.94318	280.91901	1542.0735	-898.13397
41	0.195	103.43269	1817.9961	-579.58203	135.81163	1803.2035	-521.2356	131.89369	1801.6788	-650.47302	1237.7573	37.490387	-1766.9724	1247.9966	32.43021	457.9733	99.238144	1048.2148	-723.96002	307.96243	1098.0345	-621.14642	303.73761	1095.1483	-557.27368	93.348495	1038.5009	-458.60556	299.39743	1111.9166	-589.23511	278.25928	1566.5941	-582.83954	115.69411	1531.3373	-584.11053	280.09082	1256.8632	-577.23694	239.45079	1604.7802	-733.52832	223.24376	1594.8958	-416.55371	227.11778	706.99945	-410.34033	256.87207	651.33551	-428.92572	209.82982	643.75092	-408.24759	220.66335	524.75421	-415.4404	173.8979	506.2554	-517.27222	221.90991	276.43317	-400.00082	269.19653	274.98694	-381.19489	242.63934	214.30432	-391.98721	267.9725	92.473686	-468.1817	287.0083	83.793114	-380.66763	343.90665	39.139553	-422.42831	115.2215	41.446449	-434.43707	145.14516	26.119265	-352.0256	122.65305	36.072895	-388.93445	206.79469	674.90076	-792.75714	253.68211	671.07916	-773.69598	225.2011	613.13898	-781.60138	202.37347	529.32581	-778.17218	178.69421	508.64511	-681.90686	259.56339	277.78943	-811.40405	291.60449	219.45012	-813.97949	240.51236	214.46246	-809.82629	292.77155	75.531792	-813.63947	245.10953	71.11483	-736.34998	339.97592	30.664597	-765.31177	173.10075	26.140194	-862.6745	109.42598	42.534145	-788.39301	134.06453	40.158833	-828.97089	160.19981	1469.4333	-113.94936	233.14453	1508.5862	-115.46777	259.15414	1522.8801	-216.66092	226.59691	1560.642	-219.00999	235.42319	1564.6038	-280.41861	170.0179	1562.7646	167.96588	140.80386	1627.7125	136.96161	167.241	1656.9084	236.33044	215.88229	1591.5779	-1341.0883	195.25279	1658.6166	-1307.6074	226.09541	1681.316	-1394.1392	177.91214	1484.3801	-1044.6777	247.35832	1539.386	-1057.0004	246.16362	1577.1866	-909.62714	254.11171	1564.4493	-969.948	280.93741	1542.1178	-898.14819
42	0.2	103.43806	1818.0044	-579.599	135.80479	1803.2094	-521.24799	131.89404	1801.6743	-650.49017	1237.7592	37.495098	-1766.9865	1247.9473	32.329876	457.96179	99.272179	1048.2136	-723.92859	308.00061	1098.0371	-621.172	303.78885	1095.1711	-557.29126	93.411476	1038.5066	-458.60306	299.47864	1111.9855	-589.21411	278.26895	1566.6198	-582.85925	115.72255	1531.34	-584.1228	280.12631	1256.8812	-577.26202	239.44998	1604.7988	-733.55286	223.26973	1594.9128	-416.56613	227.18689	706.99561	-410.34195	256.89801	651.3288	-428.93863	209.87866	643.75458	-408.25864	220.6841	524.745	-415.43787	173.91771	506.25116	-517.27167	221.92627	276.43423	-399.9574	269.20517	274.98102	-381.19058	242.64526	214.30003	-391.9913	267.98911	92.465134	-468.17548	287.00864	83.793236	-380.66748	343.89539	39.062332	-422.50339	115.22831	41.447311	-434.43109	145.14917	26.119324	-352.03003	122.65024	36.07803	-388.9386	206.82288	674.90009	-792.76715	253.72758	671.06824	-773.67322	225.19775	613.14502	-781.64069	202.37027	529.32904	-778.19104	178.70587	508.64923	-681.91766	259.5589	277.79877	-811.40723	291.62366	219.43259	-813.98309	240.49554	214.45808	-809.82202	292.76324	75.532043	-813.64441	245.11572	71.118912	-736.35498	339.91351	30.637495	-765.4079	173.11154	26.124289	-862.67761	109.41275	42.527992	-788.40216	134.06157	40.155281	-828.98236	160.21875	1469.4426	-113.96304	233.13715	1508.5839	-115.49971	259.18939	1522.902	-216.66382	226.61597	1560.6543	-219.02156	235.46156	1564.6196	-280.4715	170.01469	1562.809	167.95082	140.82014	1627.7423	136.93997	167.25378	1656.9332	236.3002	215.92554	1591.5859	-1341.1161	195.28021	1658.6184	-1307.6293	226.12065	1681.333	-1394.1803	177.94676	1484.3717	-1044.7054	247.38611	1539.386	-1057.0254	246.1638	1577.2032	-909.63983	254.12077	1564.4575	-969.96082	280.95413	1542.1566	-898.16382
43	0.205	103.43523	1818.0031	-579.62061	135.81207	1803.2085	-521.25897	131.88948	1801.674	-650.49768	1237.7595	37.496922	-1766.9806	1247.9969	32.424042	457.97519	99.637642	1048.3888	-724.6665	308.06265	1098.0431	-621.19336	303.8363	1095.1571	-557.32135	93.483955	1038.5157	-458.59482	299.49908	1111.923	-589.28772	278.27606	1566.6187	-582.87537	115.75138	1531.3451	-584.14655	280.16785	1256.8948	-577.29199	239.40097	1604.7343	-733.58258	223.2878	1594.924	-416.57663	227.22522	707.00769	-410.34073	256.93167	651.33881	-428.95044	209.93588	643.75635	-408.25888	220.70593	524.75146	-415.4368	173.91367	506.27887	-517.28107	221.94241	276.43051	-399.97717	269.21655	274.98083	-381.19061	242.65471	214.2957	-391.98883	267.98682	92.46907	-468.17981	287.01511	83.788429	-380.66541	343.92404	39.088749	-422.45349	115.22491	41.446831	-434.43295	145.14529	26.122585	-352.03027	122.64699	36.075741	-388.93744	206.8441	674.91156	-792.77081	253.76073	671.05695	-773.68896	225.23718	613.13977	-781.64752	202.37086	529.32281	-778.21204	178.71355	508.65149	-681.93518	259.5451	277.78479	-811.42413	291.82245	219.8737	-814.55353	240.50282	214.45758	-809.84839	292.77115	75.525589	-813.64667	245.11746	71.117241	-736.35828	340.11142	30.643578	-765.25928	173.09383	26.131372	-862.68854	109.4131	42.539745	-788.39917	134.0668	40.148945	-828.98297	160.22426	1469.4492	-113.96933	233.15234	1508.5782	-115.5051	259.20279	1522.9077	-216.67572	226.62349	1560.6539	-219.03839	235.46011	1564.6155	-280.43887	170.01335	1562.819	167.92094	140.82692	1627.7688	136.91438	167.30069	1656.9755	236.27524	215.96274	1591.5935	-1341.1423	195.31194	1658.6215	-1307.6566	226.15227	1681.3357	-1394.1932	178.00026	1484.3845	-1044.7157	247.4023	1539.4034	-1057.0579	246.17442	1577.2148	-909.66693	254.13344	1564.4689	-969.9964	280.96695	1542.1793	-898.19025
